<svg id="Layer_1" data-name="Layer 1" xmlns="http://www.w3.org/2000/svg" viewBox="0 0 600 600"><defs><style>.cls-1{fill:#bcbec0;}.cls-2{fill:#231f20;}.cls-3{fill:#f7941d;}</style></defs><title>calculator</title><rect class="cls-1" width="600" height="600"/><rect class="cls-2" x="159.6" y="65.76" width="277.06" height="469.05" rx="35.87" ry="35.87"/><path class="cls-3" d="M404,540H196a40.05,40.05,0,0,1-40-40V100a40.05,40.05,0,0,1,40-40H404a40.05,40.05,0,0,1,40,40V500A40.05,40.05,0,0,1,404,540ZM196,76a24,24,0,0,0-24,24V500a24,24,0,0,0,24,24H404a24,24,0,0,0,24-24V100a24,24,0,0,0-24-24Z"/><path class="cls-3" d="M404,172H196a8,8,0,0,1-8-8V100a8,8,0,0,1,8-8H404a8,8,0,0,1,8,8v64A8,8,0,0,1,404,172ZM204,156H396V108H204Z"/><path class="cls-3" d="M244,268H196a8,8,0,0,1-8-8V212a8,8,0,0,1,8-8h48a8,8,0,0,1,8,8v48A8,8,0,0,1,244,268Zm-40-16h32V220H204Z"/><path class="cls-3" d="M324,268H276a8,8,0,0,1-8-8V212a8,8,0,0,1,8-8h48a8,8,0,0,1,8,8v48A8,8,0,0,1,324,268Zm-40-16h32V220H284Z"/><path class="cls-3" d="M404,268H356a8,8,0,0,1-8-8V212a8,8,0,0,1,8-8h48a8,8,0,0,1,8,8v48A8,8,0,0,1,404,268Zm-40-16h32V220H364Z"/><path class="cls-3" d="M244,348H196a8,8,0,0,1-8-8V292a8,8,0,0,1,8-8h48a8,8,0,0,1,8,8v48A8,8,0,0,1,244,348Zm-40-16h32V300H204Z"/><path class="cls-3" d="M324,348H276a8,8,0,0,1-8-8V292a8,8,0,0,1,8-8h48a8,8,0,0,1,8,8v48A8,8,0,0,1,324,348Zm-40-16h32V300H284Z"/><path class="cls-3" d="M404,348H356a8,8,0,0,1-8-8V292a8,8,0,0,1,8-8h48a8,8,0,0,1,8,8v48A8,8,0,0,1,404,348Zm-40-16h32V300H364Z"/><path class="cls-3" d="M244,428H196a8,8,0,0,1-8-8V372a8,8,0,0,1,8-8h48a8,8,0,0,1,8,8v48A8,8,0,0,1,244,428Zm-40-16h32V380H204Z"/><path class="cls-3" d="M324,428H276a8,8,0,0,1-8-8V372a8,8,0,0,1,8-8h48a8,8,0,0,1,8,8v48A8,8,0,0,1,324,428Zm-40-16h32V380H284Z"/><path class="cls-3" d="M404,508H356a8,8,0,0,1-8-8V372a8,8,0,0,1,8-8h48a8,8,0,0,1,8,8V500A8,8,0,0,1,404,508Zm-40-16h32V380H364Z"/><path class="cls-3" d="M244,508H196a8,8,0,0,1-8-8V452a8,8,0,0,1,8-8h48a8,8,0,0,1,8,8v48A8,8,0,0,1,244,508Zm-40-16h32V460H204Z"/><path class="cls-3" d="M324,508H276a8,8,0,0,1-8-8V452a8,8,0,0,1,8-8h48a8,8,0,0,1,8,8v48A8,8,0,0,1,324,508Zm-40-16h32V460H284Z"/><rect class="cls-3" x="197.05" y="211.82" width="42.94" height="47.46"/><rect class="cls-3" x="277.27" y="214.08" width="44.07" height="42.94"/><rect class="cls-3" x="359.76" y="216.34" width="41.81" height="44.07"/><rect class="cls-3" x="197.05" y="289.79" width="42.94" height="47.46"/><rect class="cls-3" x="277.27" y="292.05" width="44.07" height="42.94"/><rect class="cls-3" x="359.76" y="294.31" width="41.81" height="44.07"/><rect class="cls-3" x="197.05" y="372.28" width="42.94" height="47.46"/><rect class="cls-3" x="277.27" y="374.54" width="44.07" height="42.94"/><rect class="cls-3" x="359.76" y="376.8" width="41.81" height="121.23"/><rect class="cls-3" x="198.18" y="449.11" width="42.94" height="47.46"/><rect class="cls-3" x="278.4" y="451.37" width="44.07" height="42.94"/><rect class="cls-3" x="195.92" y="101.09" width="206.78" height="62.15"/></svg>